HIERARCHY
ROOT root
{
	OFFSET	0.000000	0.000000	0.000000
	CHANNELS 6 Xposition Yposition Zposition Zrotation Yrotation Xrotation
	JOINT lhipjoint
	{
		OFFSET	0.000000	0.000000	0.000000
		CHANNELS 3 Zrotation Yrotation Xrotation
		JOINT lfemur
		{
			OFFSET	1.288582	-1.832915	1.039701
			CHANNELS 3 Zrotation Yrotation Xrotation
			JOINT ltibia
			{
				OFFSET	2.478461	-6.809521	0.000000
				CHANNELS 3 Zrotation Yrotation Xrotation
				JOINT lfoot
				{
					OFFSET	2.752744	-7.563107	0.000000
					CHANNELS 3 Zrotation Yrotation Xrotation
					JOINT ltoes
					{
						OFFSET	0.128484	-0.353008	1.682235
						CHANNELS 3 Zrotation Yrotation Xrotation
						End Site
						{
							OFFSET	0.000000	-0.000000	0.873110
						}
					}
				}
			}
		}
	}
	JOINT rhipjoint
	{
		OFFSET	0.000000	0.000000	0.000000
		CHANNELS 3 Zrotation Yrotation Xrotation
		JOINT rfemur
		{
			OFFSET	-1.311834	-1.832916	1.039700
			CHANNELS 3 Zrotation Yrotation Xrotation
			JOINT rtibia
			{
				OFFSET	-2.447395	-6.724169	0.000000
				CHANNELS 3 Zrotation Yrotation Xrotation
				JOINT rfoot
				{
					OFFSET	-2.673429	-7.345193	0.000000
					CHANNELS 3 Zrotation Yrotation Xrotation
					JOINT rtoes
					{
						OFFSET	-0.169142	-0.464715	1.776261
						CHANNELS 3 Zrotation Yrotation Xrotation
						End Site
						{
							OFFSET	-0.000000	-0.000000	0.927771
						}
					}
				}
			}
		}
	}
	JOINT lowerback
	{
		OFFSET	0.000000	0.000000	0.000000
		CHANNELS 3 Zrotation Yrotation Xrotation
		JOINT upperback
		{
			OFFSET	0.012494	2.142519	0.038421
			CHANNELS 3 Zrotation Yrotation Xrotation
			JOINT thorax
			{
				OFFSET	-0.029567	2.141988	-0.037509
				CHANNELS 3 Zrotation Yrotation Xrotation
				JOINT lowerneck
				{
					OFFSET	-0.033793	2.137338	-0.054507
					CHANNELS 3 Zrotation Yrotation Xrotation
					JOINT upperneck
					{
						OFFSET	-0.016776	1.657091	-0.054760
						CHANNELS 3 Zrotation Yrotation Xrotation
						JOINT head
						{
							OFFSET	0.079125	1.583306	-0.118434
							CHANNELS 3 Zrotation Yrotation Xrotation
							End Site
							{
								OFFSET	0.032982	1.739403	-0.042712
							}
						}
					}
				}
				JOINT lclavicle
				{
					OFFSET	-0.033793	2.137338	-0.054507
					CHANNELS 3 Zrotation Yrotation Xrotation
					JOINT lhumerus
					{
						OFFSET	3.395560	1.164964	0.086733
						CHANNELS 3 Zrotation Yrotation Xrotation
						JOINT lradius
						{
							OFFSET	5.239100	-0.000000	-0.000000
							CHANNELS 3 Zrotation Yrotation Xrotation
							JOINT lwrist
							{
								OFFSET	3.314670	-0.000000	0.000000
								CHANNELS 3 Zrotation Yrotation Xrotation
								JOINT lhand
								{
									OFFSET	1.657340	-0.000000	0.000000
									CHANNELS 3 Zrotation Yrotation Xrotation
									JOINT lfingers
									{
										OFFSET	0.965900	-0.000000	0.000000
										CHANNELS 3 Zrotation Yrotation Xrotation
										End Site
										{
											OFFSET	0.778733	-0.000000	0.000000
										}
									}
								}
								JOINT lthumb
								{
									OFFSET	1.657340	-0.000000	0.000000
									CHANNELS 3 Zrotation Yrotation Xrotation
									End Site
									{
										OFFSET	0.790623	-0.000000	0.790623
									}
								}
							}
						}
					}
				}
				JOINT rclavicle
				{
					OFFSET	-0.033793	2.137338	-0.054507
					CHANNELS 3 Zrotation Yrotation Xrotation
					JOINT rhumerus
					{
						OFFSET	-3.271929	1.313306	0.339403
						CHANNELS 3 Zrotation Yrotation Xrotation
						JOINT rradius
						{
							OFFSET	-5.302520	-0.000000	0.000000
							CHANNELS 3 Zrotation Yrotation Xrotation
							JOINT rwrist
							{
								OFFSET	-3.678750	-0.000000	0.000000
								CHANNELS 3 Zrotation Yrotation Xrotation
								JOINT rhand
								{
									OFFSET	-1.839370	-0.000000	0.000000
									CHANNELS 3 Zrotation Yrotation Xrotation
									JOINT rfingers
									{
										OFFSET	-0.594811	-0.000000	0.000000
										CHANNELS 3 Zrotation Yrotation Xrotation
										End Site
										{
											OFFSET	-0.479552	-0.000000	0.000000
										}
									}
								}
								JOINT rthumb
								{
									OFFSET	-1.839370	-0.000000	0.000000
									CHANNELS 3 Zrotation Yrotation Xrotation
									End Site
									{
										OFFSET	-0.486874	-0.000000	0.486874
									}
								}
							}
						}
					}
				}
			}
		}
	}
}
MOTION
Frames:	12
Frame Time:	0.008333
8.344208 15.436059 -12.718262 -40.125687 13.368804 94.697106 0.000000 0.000000 0.000000 37.395490 18.501550 -84.008137 6.822949 13.739018 52.172165 -0.429421 -18.955621 -27.025617 5.816032 14.247664 44.238858 0.000000 0.000000 0.000000 17.236635 -1.672622 3.122473 -0.461120 -4.528993 11.658623 2.684256 -35.342877 8.048930 -1.830642 -8.504026 24.255767 -3.205546 -1.839633 10.165088 -7.008936 -3.270151 -0.084670 -5.102514 -1.618343 -6.055048 5.585339 -2.463837 -0.058492 -0.856333 -4.309873 -35.545507 -0.881257 -2.645963 -11.784690 0.000000 0.000000 0.000000 30.334761 -51.127299 -65.947216 16.614346 -26.346558 -3.914642 -0.000002 0.000000 -20.080798 62.483683 -20.344865 -33.564679 -7.125020 0.000002 0.000000 19.977927 -6.657985 -23.421881 0.000000 0.000000 0.000000 -56.395104 31.577256 -73.747736 -29.873757 40.784939 -11.327069 0.000002 -0.000001 -9.568413 -38.497053 -41.840212 27.945796 7.125020 -0.000002 0.000000 -3.737729 -78.800286 2.938634
8.322470 15.525885 -12.347170 -40.919880 15.439001 96.172142 0.000000 0.000000 0.000000 41.419557 18.773371 -78.241778 5.098202 12.208844 44.785625 -0.208376 -16.503653 -28.024694 5.687957 14.118980 43.716157 0.000000 0.000000 0.000000 16.729128 -1.672983 4.207598 -0.492379 -4.687462 12.026973 2.960826 -36.281628 6.605696 -2.504699 -9.846442 28.480883 -2.894341 -1.878515 9.454013 -6.804065 -3.235087 -0.274859 -5.079164 -1.608903 -5.854439 4.849427 -2.888413 -0.329888 -0.182869 -4.915765 -35.948270 -0.447833 -2.907405 -11.873993 0.000000 0.000000 0.000000 29.862240 -50.629134 -65.391568 17.757906 -27.846060 -4.435578 -0.000002 0.000000 -19.493123 64.755524 -21.876758 -38.056336 -7.125020 0.000002 0.000000 20.771748 -10.710179 -25.623834 0.000000 0.000000 0.000000 -56.786230 31.501808 -74.153744 -30.139698 41.012834 -11.501188 0.000002 -0.000001 -7.501606 -38.923081 -41.528080 28.161943 7.125020 -0.000002 0.000000 -5.168958 -78.637709 4.047556
8.296093 15.625219 -11.971074 -41.589069 17.545409 97.682584 0.000000 0.000000 0.000000 46.034386 18.507712 -71.945439 3.503938 10.369867 36.898573 0.183359 -13.876491 -29.577600 5.672843 14.103633 43.654165 0.000000 0.000000 0.000000 16.259672 -1.684916 5.221592 -0.522887 -4.837796 12.374091 3.325853 -37.252276 4.870444 -3.170984 -10.966828 32.168086 -2.623036 -1.937804 8.713946 -6.602051 -3.236891 -0.488379 -5.033401 -1.616550 -5.661847 3.792738 -3.332786 -0.541320 0.727411 -5.480821 -36.149764 0.120190 -3.133949 -11.861632 0.000000 0.000000 0.000000 30.023581 -50.537526 -66.257194 18.586563 -28.901714 -4.829398 -0.000002 0.000001 -17.913058 66.537464 -23.137971 -41.886031 -7.125020 0.000002 0.000000 21.350228 -14.140296 -27.385028 0.000000 0.000000 0.000000 -57.061340 31.413178 -74.672744 -30.353838 41.194758 -11.641969 0.000002 -0.000001 -5.279143 -39.371038 -41.193942 28.385434 7.125020 -0.000002 0.000000 -6.647518 -78.456882 5.183231
8.264895 15.732766 -11.589507 -42.099437 19.698164 99.229682 0.000000 0.000000 0.000000 50.818750 17.747135 -65.983491 2.280855 8.526340 29.601896 0.667646 -11.205914 -31.795661 5.828483 14.260045 44.289424 0.000000 0.000000 0.000000 15.850438 -1.783691 6.181686 -0.549281 -4.965384 12.663776 3.658974 -38.139996 3.493433 -3.645046 -11.672459 34.582900 -2.346491 -2.023462 7.945063 -6.413134 -3.278258 -0.716312 -5.002144 -1.644527 -5.471937 2.424549 -3.799223 -0.698488 1.892675 -5.999374 -36.122759 0.823868 -3.328666 -11.729164 0.000000 0.000000 0.000000 30.925403 -50.890266 -68.532271 19.011985 -29.433565 -5.036738 -0.000002 0.000001 -15.189683 67.915334 -24.102627 -44.970074 -7.125020 0.000002 0.000000 21.787048 -16.872757 -28.759885 0.000000 0.000000 0.000000 -57.306886 31.347331 -75.333288 -30.444492 41.271351 -11.701720 0.000002 -0.000001 -2.947053 -39.824380 -40.874749 28.619435 7.125020 -0.000002 0.000000 -8.090713 -78.289508 6.284427
8.229155 15.846905 -11.202859 -42.419547 21.906469 100.816201 0.000000 0.000000 0.000000 54.686610 17.082126 -60.964072 1.381369 6.737765 22.908872 0.821309 -8.345663 -33.677621 6.208253 14.627165 45.811905 0.000000 0.000000 0.000000 15.521719 -2.017346 7.117046 -0.567464 -5.053638 12.854276 3.835291 -38.871271 3.092680 -3.766516 -11.843050 35.178995 -2.004661 -2.135497 7.145959 -6.255083 -3.353755 -0.939982 -5.040025 -1.692497 -5.269196 0.872279 -4.296527 -0.798411 3.246951 -6.502752 -35.892149 1.620403 -3.516714 -11.491265 0.000000 0.000000 0.000000 32.743252 -51.609747 -72.106459 19.012874 -29.434670 -5.037176 -0.000002 0.000001 -11.493732 68.984397 -24.806640 -47.381531 -7.125020 0.000002 0.000000 22.136284 -18.979860 -29.833236 0.000000 0.000000 0.000000 -57.515382 31.342340 -76.131578 -30.397465 41.231649 -11.670712 0.000002 -0.000001 -0.531287 -40.262382 -40.594191 28.858012 7.125020 -0.000002 0.000000 -9.433337 -78.153215 7.305327
8.189747 15.965737 -10.812642 -42.528015 24.166543 102.448056 0.000000 0.000000 0.000000 56.132004 17.816026 -57.611007 0.732243 4.963633 16.602188 0.083463 -4.838508 -33.300386 6.818836 15.177422 48.185785 0.000000 0.000000 0.000000 15.282599 -2.368648 8.066586 -0.573637 -5.087802 12.907758 3.791606 -39.424312 3.898135 -3.515041 -11.485472 33.935211 -1.545054 -2.264982 6.317632 -6.152269 -3.449919 -1.144430 -5.205242 -1.755731 -5.043095 -0.531933 -4.834007 -0.772045 4.572472 -7.064368 -35.582121 2.388282 -3.749935 -11.235273 0.000000 0.000000 0.000000 35.606010 -52.513152 -76.717519 18.635558 -28.963316 -4.853102 -0.000002 0.000001 -7.238450 69.844258 -25.318994 -49.289368 -7.125020 0.000002 0.000000 22.438292 -20.620629 -30.699596 0.000000 0.000000 0.000000 -57.594690 31.342881 -76.940504 -30.236006 41.094826 -11.564439 0.000002 -0.000002 1.842032 -40.671200 -40.375243 29.101279 7.125020 -0.000002 0.000000 -10.635878 -78.067924 8.222674
8.148115 16.087296 -10.421124 -42.422477 26.445254 104.128742 0.000000 0.000000 0.000000 53.367415 21.582935 -57.366049 0.336571 3.391301 11.218363 -1.864652 0.136326 -28.581577 7.586593 15.806602 51.059555 0.000000 0.000000 0.000000 15.117120 -2.741678 9.074628 -0.565899 -5.060446 12.804746 3.568996 -39.819076 5.550610 -3.044718 -10.767093 31.498355 -0.961429 -2.399095 5.474481 -6.121984 -3.554592 -1.326410 -5.521366 -1.828172 -4.800038 -1.372573 -5.409439 -0.521345 5.580255 -7.757025 -35.377397 2.971488 -4.080619 -11.091150 0.000000 0.000000 0.000000 39.344685 -53.336656 -81.781900 18.009278 -28.169042 -4.553622 -0.000002 0.000001 -2.994072 70.568142 -25.702231 -50.848784 -7.125020 0.000002 0.000000 22.716167 -21.940524 -31.429075 0.000000 0.000000 0.000000 -57.433550 31.218495 -77.543668 -29.999186 40.892696 -11.409091 0.000002 -0.000002 3.957674 -41.054657 -40.228711 29.358629 7.125020 -0.000002 0.000000 -11.716023 -78.047119 9.057266
8.106068 16.209677 -10.030772 -42.127902 28.681192 105.849734 0.000000 0.000000 0.000000 44.222006 28.989836 -62.508931 0.149034 2.272200 7.432858 -4.416880 7.616973 -18.272000 8.372131 16.386251 53.892255 0.000000 0.000000 0.000000 14.982377 -2.999116 10.175674 -0.545848 -4.977459 12.560432 3.268327 -40.095069 7.411683 -2.557571 -9.941837 28.788587 -0.306888 -2.528835 4.646852 -6.161577 -3.664251 -1.492895 -5.954995 -1.905850 -4.561616 -1.456711 -6.013262 -0.017901 6.131988 -8.597616 -35.400906 3.297790 -4.523487 -11.136490 0.000000 0.000000 0.000000 43.339153 -53.842738 -86.340044 17.334698 -27.296888 -4.239693 -0.000002 0.000002 0.623503 71.183247 -25.988062 -52.129692 -7.125020 0.000002 0.000000 22.973532 -23.007570 -32.049779 0.000000 0.000000 0.000000 -56.987456 30.870543 -77.772066 -29.724402 40.655992 -11.229634 0.000002 -0.000002 5.647193 -41.429415 -40.138299 29.636868 7.125020 -0.000002 0.000000 -12.740501 -78.080082 9.862057
8.065518 16.331020 -9.643725 -41.700414 30.801908 107.580097 0.000000 0.000000 0.000000 27.458908 37.183487 -74.945609 0.078960 1.673674 5.356997 -5.609037 17.298014 -3.778634 9.025676 16.824211 56.178874 0.000000 0.000000 0.000000 14.817236 -3.021014 11.380908 -0.518799 -4.860087 12.230327 2.964631 -40.280163 9.046950 -2.169393 -9.210345 26.455545 0.328344 -2.648812 3.874321 -6.254670 -3.778714 -1.654149 -6.435585 -1.985655 -4.354434 -0.982804 -6.638179 0.657788 6.356718 -9.536975 -35.631744 3.440364 -5.044244 -11.336845 0.000000 0.000000 0.000000 46.742723 -53.953873 -89.375224 16.817803 -26.616954 -4.005368 -0.000002 0.000002 3.127359 71.688167 -26.181416 -53.137154 -7.125020 0.000002 0.000000 23.204534 -23.829340 -32.565527 0.000000 0.000000 0.000000 -56.302390 30.307883 -77.597163 -29.438682 40.407378 -11.043953 0.000002 -0.000002 6.907590 -41.811832 -40.066105 29.931405 7.125020 -0.000002 0.000000 -13.781998 -78.132917 10.687311
8.028238 16.449382 -9.261221 -41.220933 32.742450 109.261098 0.000000 0.000000 0.000000 7.983407 41.414900 -90.687644 0.054971 1.418941 4.407677 -4.350204 25.981476 10.139984 9.444271 17.085265 57.614233 0.000000 0.000000 0.000000 14.553238 -2.740414 12.682748 -0.491585 -4.737916 11.891464 2.680409 -40.384268 10.354949 -1.905890 -8.667236 24.759816 0.846740 -2.755115 3.199921 -6.384605 -3.895706 -1.817265 -6.887501 -2.063792 -4.202284 -0.349878 -7.267670 1.365297 6.489130 -10.493831 -35.947369 3.530984 -5.580912 -11.587539 0.000000 0.000000 0.000000 48.969130 -53.751246 -90.376874 16.579571 -26.300186 -3.899223 -0.000002 0.000002 4.356927 72.086467 -26.289014 -53.887213 -7.125020 0.000002 0.000000 23.405539 -24.421962 -32.984024 0.000000 0.000000 0.000000 -55.483143 29.644034 -77.132628 -29.151666 40.155060 -10.858385 0.000001 -0.000002 7.918725 -42.209645 -39.971316 30.228410 7.125020 -0.000002 0.000000 -14.883500 -78.165406 11.556145
7.995666 16.562677 -8.883228 -40.775086 34.462021 110.816635 0.000000 0.000000 0.000000 -3.931127 42.385151 -100.035410 0.039572 1.216365 3.705975 -2.847318 30.276656 17.679725 9.605981 17.182246 58.163138 0.000000 0.000000 0.000000 14.129395 -2.156569 14.064428 -0.469538 -4.636442 11.609852 2.413184 -40.420397 11.416511 -1.755311 -8.336644 23.741339 1.165664 -2.846709 2.666404 -6.536949 -4.012808 -1.984718 -7.245427 -2.137048 -4.124431 0.173510 -7.863433 1.967095 6.618381 -11.395682 -36.215946 3.624560 -6.074575 -11.795716 0.000000 0.000000 0.000000 49.977327 -53.361182 -89.626995 16.608345 -26.338561 -3.911980 -0.000002 0.000002 4.555164 72.408184 -26.343066 -54.462484 -7.125020 0.000002 0.000000 23.581184 -24.861839 -33.332647 0.000000 0.000000 0.000000 -54.633566 29.013216 -76.536679 -28.861412 39.897248 -10.671711 0.000001 -0.000002 8.924930 -42.621959 -39.834971 30.517580 7.125020 -0.000002 0.000000 -16.046866 -78.157276 12.463120
7.968736 16.668956 -8.508621 -40.424238 35.958449 112.184969 0.000000 0.000000 0.000000 -3.142776 43.795336 -97.899389 0.019409 0.850543 2.599593 -3.766184 29.015103 15.285718 9.561271 17.155643 58.011676 0.000000 0.000000 0.000000 13.512985 -1.332550 15.496890 -0.454864 -4.568077 11.417540 2.164926 -40.415148 12.323791 -1.698860 -8.208442 23.348996 1.237753 -2.925012 2.305834 -6.695665 -4.128494 -2.157687 -7.462544 -2.203440 -4.134614 0.554082 -8.379063 2.356863 6.651418 -12.197457 -36.341666 3.675850 -6.487353 -11.912820 0.000000 0.000000 0.000000 50.149001 -52.893207 -87.947228 16.796544 -26.588776 -3.995847 -0.000002 0.000002 4.225668 72.702943 -26.394430 -54.994207 -7.125020 0.000002 0.000000 23.743157 -25.269228 -33.652761 0.000000 0.000000 0.000000 -53.796393 28.463355 -75.878384 -28.575258 39.640451 -10.488660 0.000001 -0.000002 10.063768 -43.044162 -39.680577 30.807458 7.125020 -0.000002 0.000000 -17.247240 -78.131776 13.395181
